<mxfile host="app.diagrams.net" modified="2024-04-23T10:58:48.669Z" agent="Mozilla/5.0 (Windows NT 10.0; Win64; x64) AppleWebKit/537.36 (KHTML, like Gecko) Chrome/123.0.0.0 Safari/537.36" etag="TcHUQ1Q2h_VtmLY_fXVZ" version="24.2.8" type="device">
  <diagram name="Page-1" id="TVMnE7DYtcwOSqiMBGxv">
    <mxGraphModel dx="1357" dy="843" grid="1" gridSize="10" guides="1" tooltips="1" connect="1" arrows="1" fold="1" page="1" pageScale="1" pageWidth="850" pageHeight="1100" math="0" shadow="0">
      <root>
        <mxCell id="0" />
        <mxCell id="1" parent="0" />
        <mxCell id="Mh70MnB431RgSZ5SsmE1-3" style="edgeStyle=orthogonalEdgeStyle;rounded=0;orthogonalLoop=1;jettySize=auto;html=1;exitX=1;exitY=0.5;exitDx=0;exitDy=0;entryX=0;entryY=0.5;entryDx=0;entryDy=0;" parent="1" source="Rw_ZjcvUHzCT5t_uzYJH-18" target="Mh70MnB431RgSZ5SsmE1-2" edge="1">
          <mxGeometry relative="1" as="geometry">
            <mxPoint x="420" y="420" as="sourcePoint" />
            <Array as="points">
              <mxPoint x="520" y="610" />
              <mxPoint x="520" y="610" />
            </Array>
          </mxGeometry>
        </mxCell>
        <mxCell id="Mh70MnB431RgSZ5SsmE1-5" style="edgeStyle=orthogonalEdgeStyle;rounded=0;orthogonalLoop=1;jettySize=auto;html=1;entryX=0;entryY=0.5;entryDx=0;entryDy=0;" parent="1" source="Mh70MnB431RgSZ5SsmE1-2" target="UnbhE5AMGjcurkw-3RXu-7" edge="1">
          <mxGeometry relative="1" as="geometry">
            <mxPoint x="680" y="580" as="targetPoint" />
          </mxGeometry>
        </mxCell>
        <mxCell id="Mh70MnB431RgSZ5SsmE1-6" value="Yes" style="edgeLabel;html=1;align=center;verticalAlign=middle;resizable=0;points=[];" parent="Mh70MnB431RgSZ5SsmE1-5" vertex="1" connectable="0">
          <mxGeometry x="0.1886" y="1" relative="1" as="geometry">
            <mxPoint as="offset" />
          </mxGeometry>
        </mxCell>
        <mxCell id="Rw_ZjcvUHzCT5t_uzYJH-22" style="edgeStyle=orthogonalEdgeStyle;rounded=0;orthogonalLoop=1;jettySize=auto;html=1;entryX=0.75;entryY=1;entryDx=0;entryDy=0;exitX=0.5;exitY=0;exitDx=0;exitDy=0;" parent="1" source="Mh70MnB431RgSZ5SsmE1-2" target="Mh70MnB431RgSZ5SsmE1-19" edge="1">
          <mxGeometry relative="1" as="geometry">
            <Array as="points">
              <mxPoint x="615" y="520" />
              <mxPoint x="838" y="520" />
            </Array>
          </mxGeometry>
        </mxCell>
        <mxCell id="Rw_ZjcvUHzCT5t_uzYJH-23" value="No" style="edgeLabel;html=1;align=center;verticalAlign=middle;resizable=0;points=[];" parent="Rw_ZjcvUHzCT5t_uzYJH-22" vertex="1" connectable="0">
          <mxGeometry x="-0.4486" y="-5" relative="1" as="geometry">
            <mxPoint x="-45" y="-5" as="offset" />
          </mxGeometry>
        </mxCell>
        <mxCell id="Mh70MnB431RgSZ5SsmE1-2" value="User chooses a valid index" style="rhombus;whiteSpace=wrap;html=1;" parent="1" vertex="1">
          <mxGeometry x="530" y="570" width="170" height="80" as="geometry" />
        </mxCell>
        <mxCell id="Mh70MnB431RgSZ5SsmE1-13" style="edgeStyle=orthogonalEdgeStyle;rounded=0;orthogonalLoop=1;jettySize=auto;html=1;entryX=0.5;entryY=0;entryDx=0;entryDy=0;" parent="1" source="Mh70MnB431RgSZ5SsmE1-7" target="Mh70MnB431RgSZ5SsmE1-12" edge="1">
          <mxGeometry relative="1" as="geometry" />
        </mxCell>
        <mxCell id="Mh70MnB431RgSZ5SsmE1-14" value="Yes" style="edgeLabel;html=1;align=center;verticalAlign=middle;resizable=0;points=[];" parent="Mh70MnB431RgSZ5SsmE1-13" vertex="1" connectable="0">
          <mxGeometry x="-0.1611" relative="1" as="geometry">
            <mxPoint as="offset" />
          </mxGeometry>
        </mxCell>
        <mxCell id="UnbhE5AMGjcurkw-3RXu-10" style="edgeStyle=orthogonalEdgeStyle;rounded=0;orthogonalLoop=1;jettySize=auto;html=1;entryX=1;entryY=0.5;entryDx=0;entryDy=0;" parent="1" source="Mh70MnB431RgSZ5SsmE1-7" target="Rw_ZjcvUHzCT5t_uzYJH-25" edge="1">
          <mxGeometry relative="1" as="geometry">
            <mxPoint x="497.5" y="760" as="targetPoint" />
          </mxGeometry>
        </mxCell>
        <mxCell id="UnbhE5AMGjcurkw-3RXu-11" value="No" style="edgeLabel;html=1;align=center;verticalAlign=middle;resizable=0;points=[];" parent="UnbhE5AMGjcurkw-3RXu-10" vertex="1" connectable="0">
          <mxGeometry x="-0.1793" relative="1" as="geometry">
            <mxPoint x="1" as="offset" />
          </mxGeometry>
        </mxCell>
        <mxCell id="Mh70MnB431RgSZ5SsmE1-7" value="Actual rent period&amp;nbsp;&lt;div&gt;lower&amp;nbsp;&lt;span style=&quot;background-color: initial;&quot;&gt;than&amp;nbsp;&lt;/span&gt;&lt;div&gt;paid for rent period&lt;/div&gt;&lt;/div&gt;" style="rhombus;whiteSpace=wrap;html=1;" parent="1" vertex="1">
          <mxGeometry x="952.5" y="710" width="195" height="100" as="geometry" />
        </mxCell>
        <mxCell id="Mh70MnB431RgSZ5SsmE1-16" style="edgeStyle=orthogonalEdgeStyle;rounded=0;orthogonalLoop=1;jettySize=auto;html=1;entryX=1;entryY=0.5;entryDx=0;entryDy=0;" parent="1" source="Mh70MnB431RgSZ5SsmE1-12" target="Rw_ZjcvUHzCT5t_uzYJH-28" edge="1">
          <mxGeometry relative="1" as="geometry">
            <Array as="points">
              <mxPoint x="1050" y="1450" />
            </Array>
            <mxPoint x="420" y="1010" as="targetPoint" />
          </mxGeometry>
        </mxCell>
        <mxCell id="Mh70MnB431RgSZ5SsmE1-12" value="Return amount already paid by user" style="rounded=1;whiteSpace=wrap;html=1;" parent="1" vertex="1">
          <mxGeometry x="990" y="860" width="120" height="60" as="geometry" />
        </mxCell>
        <mxCell id="Mh70MnB431RgSZ5SsmE1-20" style="edgeStyle=orthogonalEdgeStyle;rounded=0;orthogonalLoop=1;jettySize=auto;html=1;exitX=0.5;exitY=1;exitDx=0;exitDy=0;entryX=0.5;entryY=0;entryDx=0;entryDy=0;" parent="1" source="Rw_ZjcvUHzCT5t_uzYJH-4" target="UnbhE5AMGjcurkw-3RXu-1" edge="1">
          <mxGeometry relative="1" as="geometry">
            <mxPoint x="420" y="360" as="targetPoint" />
          </mxGeometry>
        </mxCell>
        <mxCell id="Rw_ZjcvUHzCT5t_uzYJH-6" value="Yes" style="edgeLabel;html=1;align=center;verticalAlign=middle;resizable=0;points=[];" parent="Mh70MnB431RgSZ5SsmE1-20" vertex="1" connectable="0">
          <mxGeometry x="0.067" relative="1" as="geometry">
            <mxPoint as="offset" />
          </mxGeometry>
        </mxCell>
        <mxCell id="Mh70MnB431RgSZ5SsmE1-19" value="Display return options" style="rounded=1;whiteSpace=wrap;html=1;" parent="1" vertex="1">
          <mxGeometry x="710" y="70" width="170" height="70" as="geometry" />
        </mxCell>
        <mxCell id="Rw_ZjcvUHzCT5t_uzYJH-14" style="edgeStyle=orthogonalEdgeStyle;rounded=0;orthogonalLoop=1;jettySize=auto;html=1;exitX=1;exitY=0.5;exitDx=0;exitDy=0;entryX=0;entryY=0.25;entryDx=0;entryDy=0;" parent="1" source="Mh70MnB431RgSZ5SsmE1-22" target="Mh70MnB431RgSZ5SsmE1-19" edge="1">
          <mxGeometry relative="1" as="geometry">
            <Array as="points">
              <mxPoint x="109" y="88" />
              <mxPoint x="455" y="88" />
            </Array>
          </mxGeometry>
        </mxCell>
        <mxCell id="Mh70MnB431RgSZ5SsmE1-22" value="Return" style="ellipse;whiteSpace=wrap;html=1;" parent="1" vertex="1">
          <mxGeometry x="48.5" y="60" width="60" height="60" as="geometry" />
        </mxCell>
        <mxCell id="Rw_ZjcvUHzCT5t_uzYJH-53" style="edgeStyle=orthogonalEdgeStyle;rounded=0;orthogonalLoop=1;jettySize=auto;html=1;entryX=0.5;entryY=0;entryDx=0;entryDy=0;exitX=0.5;exitY=1;exitDx=0;exitDy=0;" parent="1" source="Mh70MnB431RgSZ5SsmE1-37" target="Rw_ZjcvUHzCT5t_uzYJH-28" edge="1">
          <mxGeometry relative="1" as="geometry" />
        </mxCell>
        <mxCell id="Mh70MnB431RgSZ5SsmE1-37" value="Calculate change" style="rounded=1;whiteSpace=wrap;html=1;" parent="1" vertex="1">
          <mxGeometry x="710" y="1280" width="170" height="90" as="geometry" />
        </mxCell>
        <mxCell id="UnbhE5AMGjcurkw-3RXu-2" style="edgeStyle=orthogonalEdgeStyle;rounded=0;orthogonalLoop=1;jettySize=auto;html=1;entryX=0.5;entryY=1;entryDx=0;entryDy=0;exitX=1;exitY=0.5;exitDx=0;exitDy=0;" parent="1" edge="1" target="Mh70MnB431RgSZ5SsmE1-19" source="UnbhE5AMGjcurkw-3RXu-1">
          <mxGeometry relative="1" as="geometry">
            <mxPoint x="460" y="460" as="sourcePoint" />
            <mxPoint x="797.5" y="240" as="targetPoint" />
          </mxGeometry>
        </mxCell>
        <mxCell id="UnbhE5AMGjcurkw-3RXu-3" value="No" style="edgeLabel;html=1;align=center;verticalAlign=middle;resizable=0;points=[];" parent="UnbhE5AMGjcurkw-3RXu-2" vertex="1" connectable="0">
          <mxGeometry x="-0.1553" y="2" relative="1" as="geometry">
            <mxPoint x="-207" y="2" as="offset" />
          </mxGeometry>
        </mxCell>
        <mxCell id="UnbhE5AMGjcurkw-3RXu-1" value="Check if at least one&amp;nbsp;&lt;div&gt;book&amp;nbsp;&lt;span style=&quot;background-color: initial;&quot;&gt;can be returned&lt;/span&gt;&lt;/div&gt;" style="rhombus;whiteSpace=wrap;html=1;" parent="1" vertex="1">
          <mxGeometry x="160" y="430" width="172" height="80" as="geometry" />
        </mxCell>
        <mxCell id="UnbhE5AMGjcurkw-3RXu-8" style="edgeStyle=orthogonalEdgeStyle;rounded=0;orthogonalLoop=1;jettySize=auto;html=1;entryX=0.5;entryY=0;entryDx=0;entryDy=0;" parent="1" source="UnbhE5AMGjcurkw-3RXu-7" target="Mh70MnB431RgSZ5SsmE1-7" edge="1">
          <mxGeometry relative="1" as="geometry" />
        </mxCell>
        <mxCell id="UnbhE5AMGjcurkw-3RXu-7" value="Asks user for how many days book has been rented" style="rounded=1;whiteSpace=wrap;html=1;" parent="1" vertex="1">
          <mxGeometry x="965" y="570" width="170" height="80" as="geometry" />
        </mxCell>
        <mxCell id="Rw_ZjcvUHzCT5t_uzYJH-5" value="" style="edgeStyle=orthogonalEdgeStyle;rounded=0;orthogonalLoop=1;jettySize=auto;html=1;exitX=0.25;exitY=1;exitDx=0;exitDy=0;entryX=1;entryY=0.5;entryDx=0;entryDy=0;" parent="1" source="Mh70MnB431RgSZ5SsmE1-19" target="Rw_ZjcvUHzCT5t_uzYJH-4" edge="1">
          <mxGeometry relative="1" as="geometry">
            <mxPoint x="420" y="360" as="targetPoint" />
            <mxPoint x="753" y="260" as="sourcePoint" />
            <Array as="points">
              <mxPoint x="753" y="325" />
            </Array>
          </mxGeometry>
        </mxCell>
        <mxCell id="Rw_ZjcvUHzCT5t_uzYJH-10" style="edgeStyle=orthogonalEdgeStyle;rounded=0;orthogonalLoop=1;jettySize=auto;html=1;entryX=1;entryY=0.5;entryDx=0;entryDy=0;" parent="1" source="Rw_ZjcvUHzCT5t_uzYJH-4" target="Rw_ZjcvUHzCT5t_uzYJH-9" edge="1">
          <mxGeometry relative="1" as="geometry" />
        </mxCell>
        <mxCell id="Rw_ZjcvUHzCT5t_uzYJH-11" value="No" style="edgeLabel;html=1;align=center;verticalAlign=middle;resizable=0;points=[];" parent="Rw_ZjcvUHzCT5t_uzYJH-10" vertex="1" connectable="0">
          <mxGeometry x="-0.071" relative="1" as="geometry">
            <mxPoint as="offset" />
          </mxGeometry>
        </mxCell>
        <mxCell id="Rw_ZjcvUHzCT5t_uzYJH-4" value="User wants to&amp;nbsp;&lt;div&gt;return a book&lt;/div&gt;" style="rhombus;whiteSpace=wrap;html=1;" parent="1" vertex="1">
          <mxGeometry x="450" y="280" width="163" height="90" as="geometry" />
        </mxCell>
        <mxCell id="Rw_ZjcvUHzCT5t_uzYJH-12" style="edgeStyle=orthogonalEdgeStyle;rounded=0;orthogonalLoop=1;jettySize=auto;html=1;" parent="1" source="Rw_ZjcvUHzCT5t_uzYJH-9" target="Rw_ZjcvUHzCT5t_uzYJH-13" edge="1">
          <mxGeometry relative="1" as="geometry">
            <mxPoint x="301.5" y="500" as="targetPoint" />
          </mxGeometry>
        </mxCell>
        <mxCell id="Rw_ZjcvUHzCT5t_uzYJH-15" value="Yes" style="edgeLabel;html=1;align=center;verticalAlign=middle;resizable=0;points=[];" parent="Rw_ZjcvUHzCT5t_uzYJH-12" vertex="1" connectable="0">
          <mxGeometry x="0.0826" y="-3" relative="1" as="geometry">
            <mxPoint as="offset" />
          </mxGeometry>
        </mxCell>
        <mxCell id="Rw_ZjcvUHzCT5t_uzYJH-16" style="edgeStyle=orthogonalEdgeStyle;rounded=0;orthogonalLoop=1;jettySize=auto;html=1;entryX=0;entryY=0.75;entryDx=0;entryDy=0;" parent="1" source="Rw_ZjcvUHzCT5t_uzYJH-9" target="Mh70MnB431RgSZ5SsmE1-19" edge="1">
          <mxGeometry relative="1" as="geometry">
            <Array as="points">
              <mxPoint x="254" y="210" />
              <mxPoint x="523" y="210" />
              <mxPoint x="523" y="123" />
            </Array>
          </mxGeometry>
        </mxCell>
        <mxCell id="Rw_ZjcvUHzCT5t_uzYJH-17" value="No" style="edgeLabel;html=1;align=center;verticalAlign=middle;resizable=0;points=[];" parent="Rw_ZjcvUHzCT5t_uzYJH-16" vertex="1" connectable="0">
          <mxGeometry x="-0.356" y="4" relative="1" as="geometry">
            <mxPoint x="14" y="1" as="offset" />
          </mxGeometry>
        </mxCell>
        <mxCell id="Rw_ZjcvUHzCT5t_uzYJH-9" value="User wants to exit" style="rhombus;whiteSpace=wrap;html=1;" parent="1" vertex="1">
          <mxGeometry x="172" y="280" width="163" height="90" as="geometry" />
        </mxCell>
        <mxCell id="Rw_ZjcvUHzCT5t_uzYJH-13" value="Exit" style="ellipse;whiteSpace=wrap;html=1;" parent="1" vertex="1">
          <mxGeometry x="50" y="460" width="58.5" height="60" as="geometry" />
        </mxCell>
        <mxCell id="Rw_ZjcvUHzCT5t_uzYJH-19" value="" style="edgeStyle=orthogonalEdgeStyle;rounded=0;orthogonalLoop=1;jettySize=auto;html=1;exitX=0.5;exitY=1;exitDx=0;exitDy=0;entryX=0.5;entryY=0;entryDx=0;entryDy=0;" parent="1" source="UnbhE5AMGjcurkw-3RXu-1" target="Rw_ZjcvUHzCT5t_uzYJH-18" edge="1">
          <mxGeometry relative="1" as="geometry">
            <mxPoint x="420" y="500" as="sourcePoint" />
            <mxPoint x="640" y="610" as="targetPoint" />
          </mxGeometry>
        </mxCell>
        <mxCell id="Rw_ZjcvUHzCT5t_uzYJH-21" value="Yes" style="edgeLabel;html=1;align=center;verticalAlign=middle;resizable=0;points=[];" parent="Rw_ZjcvUHzCT5t_uzYJH-19" vertex="1" connectable="0">
          <mxGeometry x="-0.1" y="-1" relative="1" as="geometry">
            <mxPoint as="offset" />
          </mxGeometry>
        </mxCell>
        <mxCell id="Rw_ZjcvUHzCT5t_uzYJH-18" value="Prompt user for book index" style="rounded=1;whiteSpace=wrap;html=1;" parent="1" vertex="1">
          <mxGeometry x="175" y="590" width="142" height="60" as="geometry" />
        </mxCell>
        <mxCell id="Rw_ZjcvUHzCT5t_uzYJH-26" style="edgeStyle=orthogonalEdgeStyle;rounded=0;orthogonalLoop=1;jettySize=auto;html=1;entryX=0;entryY=0.5;entryDx=0;entryDy=0;" parent="1" source="Rw_ZjcvUHzCT5t_uzYJH-25" target="Rw_ZjcvUHzCT5t_uzYJH-28" edge="1">
          <mxGeometry relative="1" as="geometry">
            <mxPoint x="320" y="1060" as="targetPoint" />
            <Array as="points">
              <mxPoint x="70" y="760" />
              <mxPoint x="70" y="1450" />
            </Array>
          </mxGeometry>
        </mxCell>
        <mxCell id="Rw_ZjcvUHzCT5t_uzYJH-27" value="Yes" style="edgeLabel;html=1;align=center;verticalAlign=middle;resizable=0;points=[];" parent="Rw_ZjcvUHzCT5t_uzYJH-26" vertex="1" connectable="0">
          <mxGeometry x="-0.3771" y="1" relative="1" as="geometry">
            <mxPoint as="offset" />
          </mxGeometry>
        </mxCell>
        <mxCell id="Rw_ZjcvUHzCT5t_uzYJH-32" style="edgeStyle=orthogonalEdgeStyle;rounded=0;orthogonalLoop=1;jettySize=auto;html=1;entryX=0.5;entryY=0;entryDx=0;entryDy=0;" parent="1" source="Rw_ZjcvUHzCT5t_uzYJH-25" target="Rw_ZjcvUHzCT5t_uzYJH-29" edge="1">
          <mxGeometry relative="1" as="geometry" />
        </mxCell>
        <mxCell id="Rw_ZjcvUHzCT5t_uzYJH-33" value="No" style="edgeLabel;html=1;align=center;verticalAlign=middle;resizable=0;points=[];" parent="Rw_ZjcvUHzCT5t_uzYJH-32" vertex="1" connectable="0">
          <mxGeometry x="-0.2485" relative="1" as="geometry">
            <mxPoint as="offset" />
          </mxGeometry>
        </mxCell>
        <mxCell id="Rw_ZjcvUHzCT5t_uzYJH-25" value="Actual rent period equal&amp;nbsp;&lt;div&gt;to paid for rent period&lt;/div&gt;" style="rhombus;whiteSpace=wrap;html=1;" parent="1" vertex="1">
          <mxGeometry x="230" y="715" width="180" height="90" as="geometry" />
        </mxCell>
        <mxCell id="Rw_ZjcvUHzCT5t_uzYJH-34" style="edgeStyle=orthogonalEdgeStyle;rounded=0;orthogonalLoop=1;jettySize=auto;html=1;entryX=0;entryY=0.5;entryDx=0;entryDy=0;" parent="1" source="Rw_ZjcvUHzCT5t_uzYJH-29" target="Rw_ZjcvUHzCT5t_uzYJH-35" edge="1">
          <mxGeometry relative="1" as="geometry">
            <mxPoint x="560" y="900" as="targetPoint" />
          </mxGeometry>
        </mxCell>
        <mxCell id="Rw_ZjcvUHzCT5t_uzYJH-29" value="Calculate unpaid for rent period" style="rounded=1;whiteSpace=wrap;html=1;" parent="1" vertex="1">
          <mxGeometry x="245" y="940" width="150" height="80" as="geometry" />
        </mxCell>
        <mxCell id="Rw_ZjcvUHzCT5t_uzYJH-43" style="edgeStyle=orthogonalEdgeStyle;rounded=0;orthogonalLoop=1;jettySize=auto;html=1;entryX=1;entryY=0.5;entryDx=0;entryDy=0;exitX=0.5;exitY=1;exitDx=0;exitDy=0;" parent="1" source="Rw_ZjcvUHzCT5t_uzYJH-31" target="Rw_ZjcvUHzCT5t_uzYJH-37" edge="1">
          <mxGeometry relative="1" as="geometry" />
        </mxCell>
        <mxCell id="Rw_ZjcvUHzCT5t_uzYJH-31" value="Calculate penalty fee" style="rounded=1;whiteSpace=wrap;html=1;" parent="1" vertex="1">
          <mxGeometry x="782.5" y="900" width="170" height="80" as="geometry" />
        </mxCell>
        <mxCell id="Rw_ZjcvUHzCT5t_uzYJH-36" style="edgeStyle=orthogonalEdgeStyle;rounded=0;orthogonalLoop=1;jettySize=auto;html=1;" parent="1" source="Rw_ZjcvUHzCT5t_uzYJH-35" target="Rw_ZjcvUHzCT5t_uzYJH-31" edge="1">
          <mxGeometry relative="1" as="geometry" />
        </mxCell>
        <mxCell id="Rw_ZjcvUHzCT5t_uzYJH-47" value="Yes" style="edgeLabel;html=1;align=center;verticalAlign=middle;resizable=0;points=[];" parent="Rw_ZjcvUHzCT5t_uzYJH-36" vertex="1" connectable="0">
          <mxGeometry x="0.3467" y="-2" relative="1" as="geometry">
            <mxPoint as="offset" />
          </mxGeometry>
        </mxCell>
        <mxCell id="Rw_ZjcvUHzCT5t_uzYJH-42" style="edgeStyle=orthogonalEdgeStyle;rounded=0;orthogonalLoop=1;jettySize=auto;html=1;entryX=0.5;entryY=0;entryDx=0;entryDy=0;" parent="1" source="Rw_ZjcvUHzCT5t_uzYJH-35" target="Rw_ZjcvUHzCT5t_uzYJH-37" edge="1">
          <mxGeometry relative="1" as="geometry" />
        </mxCell>
        <mxCell id="Rw_ZjcvUHzCT5t_uzYJH-46" value="No" style="edgeLabel;html=1;align=center;verticalAlign=middle;resizable=0;points=[];" parent="Rw_ZjcvUHzCT5t_uzYJH-42" vertex="1" connectable="0">
          <mxGeometry x="-0.3939" y="-3" relative="1" as="geometry">
            <mxPoint as="offset" />
          </mxGeometry>
        </mxCell>
        <mxCell id="Rw_ZjcvUHzCT5t_uzYJH-35" value="Actual rent period exceeds&amp;nbsp;&lt;div&gt;allowed rental period&lt;/div&gt;" style="rhombus;whiteSpace=wrap;html=1;" parent="1" vertex="1">
          <mxGeometry x="491" y="935" width="200" height="90" as="geometry" />
        </mxCell>
        <mxCell id="Rw_ZjcvUHzCT5t_uzYJH-45" style="edgeStyle=orthogonalEdgeStyle;rounded=0;orthogonalLoop=1;jettySize=auto;html=1;entryX=0.5;entryY=0;entryDx=0;entryDy=0;" parent="1" source="Rw_ZjcvUHzCT5t_uzYJH-37" target="Rw_ZjcvUHzCT5t_uzYJH-39" edge="1">
          <mxGeometry relative="1" as="geometry" />
        </mxCell>
        <mxCell id="Rw_ZjcvUHzCT5t_uzYJH-37" value="Prompt user for total fee payment&amp;nbsp;&lt;div&gt;(unpaid rent + penalty fee)&amp;nbsp;&lt;/div&gt;" style="rounded=1;whiteSpace=wrap;html=1;" parent="1" vertex="1">
          <mxGeometry x="506" y="1110" width="170" height="80" as="geometry" />
        </mxCell>
        <mxCell id="Rw_ZjcvUHzCT5t_uzYJH-49" style="edgeStyle=orthogonalEdgeStyle;rounded=0;orthogonalLoop=1;jettySize=auto;html=1;entryX=0;entryY=0.5;entryDx=0;entryDy=0;exitX=0.5;exitY=1;exitDx=0;exitDy=0;" parent="1" source="Rw_ZjcvUHzCT5t_uzYJH-39" target="Mh70MnB431RgSZ5SsmE1-37" edge="1">
          <mxGeometry relative="1" as="geometry" />
        </mxCell>
        <mxCell id="Rw_ZjcvUHzCT5t_uzYJH-50" value="Yes" style="edgeLabel;html=1;align=center;verticalAlign=middle;resizable=0;points=[];" parent="Rw_ZjcvUHzCT5t_uzYJH-49" vertex="1" connectable="0">
          <mxGeometry x="-0.0902" y="4" relative="1" as="geometry">
            <mxPoint as="offset" />
          </mxGeometry>
        </mxCell>
        <mxCell id="Rw_ZjcvUHzCT5t_uzYJH-51" style="edgeStyle=orthogonalEdgeStyle;rounded=0;orthogonalLoop=1;jettySize=auto;html=1;entryX=0.5;entryY=1;entryDx=0;entryDy=0;exitX=1;exitY=0.5;exitDx=0;exitDy=0;" parent="1" source="Rw_ZjcvUHzCT5t_uzYJH-39" target="Rw_ZjcvUHzCT5t_uzYJH-37" edge="1">
          <mxGeometry relative="1" as="geometry" />
        </mxCell>
        <mxCell id="Rw_ZjcvUHzCT5t_uzYJH-52" value="No" style="edgeLabel;html=1;align=center;verticalAlign=middle;resizable=0;points=[];" parent="Rw_ZjcvUHzCT5t_uzYJH-51" vertex="1" connectable="0">
          <mxGeometry x="0.048" y="-3" relative="1" as="geometry">
            <mxPoint as="offset" />
          </mxGeometry>
        </mxCell>
        <mxCell id="Rw_ZjcvUHzCT5t_uzYJH-39" value="User payment equal to&amp;nbsp;&lt;div&gt;or more than total fee&lt;/div&gt;" style="rhombus;whiteSpace=wrap;html=1;" parent="1" vertex="1">
          <mxGeometry x="115" y="1200" width="175" height="90" as="geometry" />
        </mxCell>
        <mxCell id="Rw_ZjcvUHzCT5t_uzYJH-54" style="edgeStyle=orthogonalEdgeStyle;rounded=0;orthogonalLoop=1;jettySize=auto;html=1;entryX=1;entryY=0.5;entryDx=0;entryDy=0;exitX=0.5;exitY=1;exitDx=0;exitDy=0;" parent="1" source="Rw_ZjcvUHzCT5t_uzYJH-28" target="Mh70MnB431RgSZ5SsmE1-19" edge="1">
          <mxGeometry relative="1" as="geometry">
            <Array as="points">
              <mxPoint x="210" y="1520" />
              <mxPoint x="1200" y="1520" />
              <mxPoint x="1200" y="105" />
            </Array>
          </mxGeometry>
        </mxCell>
        <mxCell id="Rw_ZjcvUHzCT5t_uzYJH-28" value="Payment outstanding settled" style="rounded=1;whiteSpace=wrap;html=1;" parent="1" vertex="1">
          <mxGeometry x="130" y="1410" width="160" height="80" as="geometry" />
        </mxCell>
      </root>
    </mxGraphModel>
  </diagram>
</mxfile>
